<mxfile host="app.diagrams.net" agent="Mozilla/5.0 (Windows NT 10.0; Win64; x64) AppleWebKit/537.36 (KHTML, like Gecko) Chrome/135.0.0.0 Safari/537.36" version="26.2.13">
  <diagram name="Page-1" id="hcpHZ6ccYuUKKbrcM0zQ">
    <mxGraphModel dx="2732" dy="2181" grid="1" gridSize="10" guides="1" tooltips="1" connect="1" arrows="1" fold="1" page="1" pageScale="1" pageWidth="583" pageHeight="827" math="0" shadow="0">
      <root>
        <mxCell id="0" />
        <mxCell id="1" parent="0" />
        <mxCell id="k14v_txheM4Cf3BcGJJy-1" value="Admin" style="html=1;overflow=block;blockSpacing=1;whiteSpace=wrap;fontSize=16.7;spacing=3.8;strokeColor=#282c33;strokeOpacity=100;fillOpacity=0;rounded=1;absoluteArcSize=1;arcSize=9;fillColor=#000000;strokeWidth=1.5;lucidId=hb4.vyTk6asr;" vertex="1" parent="1">
          <mxGeometry x="-570" y="-1155" width="120" height="60" as="geometry" />
        </mxCell>
        <mxCell id="k14v_txheM4Cf3BcGJJy-2" value="admin_ID" style="html=1;overflow=block;blockSpacing=1;whiteSpace=wrap;fontSize=16.7;spacing=3.8;strokeColor=#282c33;strokeOpacity=100;fillOpacity=0;rounded=1;absoluteArcSize=1;arcSize=9;fillColor=#000000;strokeWidth=1.5;lucidId=Nj4.BmFv3V2U;" vertex="1" parent="1">
          <mxGeometry x="-615" y="-1260" width="120" height="60" as="geometry" />
        </mxCell>
        <mxCell id="k14v_txheM4Cf3BcGJJy-3" value="email" style="html=1;overflow=block;blockSpacing=1;whiteSpace=wrap;fontSize=16.7;spacing=3.8;strokeColor=#282c33;strokeOpacity=100;fillOpacity=0;rounded=1;absoluteArcSize=1;arcSize=9;fillColor=#000000;strokeWidth=1.5;lucidId=Sj4.rrasUql9;" vertex="1" parent="1">
          <mxGeometry x="-465" y="-1260" width="120" height="60" as="geometry" />
        </mxCell>
        <mxCell id="k14v_txheM4Cf3BcGJJy-4" value="password" style="html=1;overflow=block;blockSpacing=1;whiteSpace=wrap;fontSize=16.7;spacing=3.8;strokeColor=#282c33;strokeOpacity=100;fillOpacity=0;rounded=1;absoluteArcSize=1;arcSize=9;fillColor=#000000;strokeWidth=1.5;lucidId=Xj4.w3MiI6cZ;" vertex="1" parent="1">
          <mxGeometry x="-405" y="-1155" width="120" height="60" as="geometry" />
        </mxCell>
        <mxCell id="k14v_txheM4Cf3BcGJJy-5" value="" style="html=1;jettySize=18;whiteSpace=wrap;fontSize=13;strokeColor=#3a414a;strokeOpacity=100;strokeWidth=0.8;rounded=1;arcSize=12;edgeStyle=orthogonalEdgeStyle;startArrow=none;endArrow=none;exitX=0.5;exitY=0;exitPerimeter=0;entryX=0.5;entryY=1;entryPerimeter=0;lucidId=Bk4.I4kPWUiC;" edge="1" parent="1" source="k14v_txheM4Cf3BcGJJy-1" target="k14v_txheM4Cf3BcGJJy-2">
          <mxGeometry width="100" height="100" relative="1" as="geometry">
            <Array as="points" />
          </mxGeometry>
        </mxCell>
        <mxCell id="k14v_txheM4Cf3BcGJJy-6" value="" style="html=1;jettySize=18;whiteSpace=wrap;fontSize=13;strokeColor=#3a414a;strokeOpacity=100;strokeWidth=0.8;rounded=1;arcSize=12;edgeStyle=orthogonalEdgeStyle;startArrow=none;endArrow=none;exitX=1;exitY=0;exitPerimeter=0;entryX=0.5;entryY=1;entryPerimeter=0;lucidId=Gk4.zLGk2b7G;" edge="1" parent="1" source="k14v_txheM4Cf3BcGJJy-1" target="k14v_txheM4Cf3BcGJJy-3">
          <mxGeometry width="100" height="100" relative="1" as="geometry">
            <Array as="points" />
          </mxGeometry>
        </mxCell>
        <mxCell id="k14v_txheM4Cf3BcGJJy-7" value="" style="html=1;jettySize=18;whiteSpace=wrap;fontSize=13;strokeColor=#3a414a;strokeOpacity=100;strokeWidth=0.8;rounded=1;arcSize=12;edgeStyle=orthogonalEdgeStyle;startArrow=none;endArrow=none;exitX=0.5;exitY=0;exitPerimeter=0;entryX=0.5;entryY=1;entryPerimeter=0;lucidId=Rk4.hTupNM2a;" edge="1" parent="1" source="k14v_txheM4Cf3BcGJJy-4" target="k14v_txheM4Cf3BcGJJy-3">
          <mxGeometry width="100" height="100" relative="1" as="geometry">
            <Array as="points" />
          </mxGeometry>
        </mxCell>
        <mxCell id="k14v_txheM4Cf3BcGJJy-8" value="User" style="html=1;overflow=block;blockSpacing=1;whiteSpace=wrap;fontSize=16.7;spacing=3.8;strokeColor=#282c33;strokeOpacity=100;fillOpacity=0;rounded=1;absoluteArcSize=1;arcSize=9;fillColor=#000000;strokeWidth=1.5;lucidId=ub4.8B3P5FTU;" vertex="1" parent="1">
          <mxGeometry x="-225" y="-990" width="120" height="60" as="geometry" />
        </mxCell>
        <mxCell id="k14v_txheM4Cf3BcGJJy-9" value="Nutrition&#xa;Expert" style="html=1;overflow=block;blockSpacing=1;whiteSpace=wrap;fontSize=16.7;spacing=3.8;strokeColor=#282c33;strokeOpacity=100;fillOpacity=0;rounded=1;absoluteArcSize=1;arcSize=9;fillColor=#000000;strokeWidth=1.5;lucidId=1b4.JOl9O3yM;" vertex="1" parent="1">
          <mxGeometry x="-135" y="-765" width="120" height="60" as="geometry" />
        </mxCell>
        <mxCell id="k14v_txheM4Cf3BcGJJy-43" style="edgeStyle=orthogonalEdgeStyle;rounded=0;orthogonalLoop=1;jettySize=auto;html=1;entryX=0.5;entryY=1;entryDx=0;entryDy=0;endArrow=none;startFill=0;" edge="1" parent="1" source="k14v_txheM4Cf3BcGJJy-10" target="k14v_txheM4Cf3BcGJJy-36">
          <mxGeometry relative="1" as="geometry" />
        </mxCell>
        <mxCell id="k14v_txheM4Cf3BcGJJy-44" style="edgeStyle=orthogonalEdgeStyle;rounded=0;orthogonalLoop=1;jettySize=auto;html=1;endArrow=none;startFill=0;" edge="1" parent="1" source="k14v_txheM4Cf3BcGJJy-10" target="k14v_txheM4Cf3BcGJJy-35">
          <mxGeometry relative="1" as="geometry">
            <Array as="points">
              <mxPoint x="180" y="-417" />
              <mxPoint x="180" y="-518" />
            </Array>
          </mxGeometry>
        </mxCell>
        <mxCell id="k14v_txheM4Cf3BcGJJy-45" style="edgeStyle=orthogonalEdgeStyle;rounded=0;orthogonalLoop=1;jettySize=auto;html=1;entryX=0;entryY=0.25;entryDx=0;entryDy=0;endArrow=none;startFill=0;" edge="1" parent="1" source="k14v_txheM4Cf3BcGJJy-10" target="k14v_txheM4Cf3BcGJJy-34">
          <mxGeometry relative="1" as="geometry" />
        </mxCell>
        <mxCell id="k14v_txheM4Cf3BcGJJy-46" style="edgeStyle=orthogonalEdgeStyle;rounded=0;orthogonalLoop=1;jettySize=auto;html=1;entryX=0;entryY=0.5;entryDx=0;entryDy=0;endArrow=none;startFill=0;" edge="1" parent="1" source="k14v_txheM4Cf3BcGJJy-10" target="k14v_txheM4Cf3BcGJJy-33">
          <mxGeometry relative="1" as="geometry" />
        </mxCell>
        <mxCell id="k14v_txheM4Cf3BcGJJy-48" style="edgeStyle=orthogonalEdgeStyle;rounded=0;orthogonalLoop=1;jettySize=auto;html=1;entryX=0.5;entryY=0;entryDx=0;entryDy=0;endArrow=none;endFill=1;startFill=0;" edge="1" parent="1" source="k14v_txheM4Cf3BcGJJy-10" target="k14v_txheM4Cf3BcGJJy-40">
          <mxGeometry relative="1" as="geometry" />
        </mxCell>
        <mxCell id="k14v_txheM4Cf3BcGJJy-10" value="Nutiration&#xa;Plan" style="html=1;overflow=block;blockSpacing=1;whiteSpace=wrap;fontSize=16.7;spacing=3.8;strokeColor=#282c33;strokeOpacity=100;fillOpacity=0;rounded=1;absoluteArcSize=1;arcSize=9;fillColor=#000000;strokeWidth=1.5;lucidId=Dd4.VWxQukpK;" vertex="1" parent="1">
          <mxGeometry x="45" y="-447" width="120" height="60" as="geometry" />
        </mxCell>
        <mxCell id="k14v_txheM4Cf3BcGJJy-11" value="user_ID" style="html=1;overflow=block;blockSpacing=1;whiteSpace=wrap;fontSize=16.7;spacing=3.8;strokeColor=#282c33;strokeOpacity=100;fillOpacity=0;rounded=1;absoluteArcSize=1;arcSize=9;fillColor=#000000;strokeWidth=1.5;lucidId=cl4.T-l417Cw;" vertex="1" parent="1">
          <mxGeometry x="-225" y="-1095" width="120" height="60" as="geometry" />
        </mxCell>
        <mxCell id="k14v_txheM4Cf3BcGJJy-12" value="" style="html=1;jettySize=18;whiteSpace=wrap;fontSize=13;strokeColor=#3a414a;strokeOpacity=100;strokeWidth=0.8;rounded=1;arcSize=12;edgeStyle=orthogonalEdgeStyle;startArrow=none;endArrow=none;exitX=0.5;exitY=0;exitPerimeter=0;entryX=0.5;entryY=1;entryPerimeter=0;lucidId=Tl4.tdSYJboX;" edge="1" parent="1" source="k14v_txheM4Cf3BcGJJy-8" target="k14v_txheM4Cf3BcGJJy-11">
          <mxGeometry width="100" height="100" relative="1" as="geometry">
            <Array as="points" />
          </mxGeometry>
        </mxCell>
        <mxCell id="k14v_txheM4Cf3BcGJJy-13" value="name" style="html=1;overflow=block;blockSpacing=1;whiteSpace=wrap;fontSize=16.7;spacing=3.8;strokeColor=#282c33;strokeOpacity=100;fillOpacity=0;rounded=1;absoluteArcSize=1;arcSize=9;fillColor=#000000;strokeWidth=1.5;lucidId=6l4.-MNjC_vN;" vertex="1" parent="1">
          <mxGeometry x="-75" y="-1080" width="120" height="60" as="geometry" />
        </mxCell>
        <mxCell id="k14v_txheM4Cf3BcGJJy-14" value="" style="html=1;jettySize=18;whiteSpace=wrap;fontSize=13;strokeColor=#3a414a;strokeOpacity=100;strokeWidth=0.8;rounded=1;arcSize=12;edgeStyle=orthogonalEdgeStyle;startArrow=none;endArrow=none;exitX=1;exitY=0.5;exitPerimeter=0;entryX=0.5;entryY=1;entryPerimeter=0;lucidId=wm4.OwUb2Ibn;" edge="1" parent="1" source="k14v_txheM4Cf3BcGJJy-8" target="k14v_txheM4Cf3BcGJJy-13">
          <mxGeometry width="100" height="100" relative="1" as="geometry">
            <Array as="points" />
          </mxGeometry>
        </mxCell>
        <mxCell id="k14v_txheM4Cf3BcGJJy-15" value="email" style="html=1;overflow=block;blockSpacing=1;whiteSpace=wrap;fontSize=16.7;spacing=3.8;strokeColor=#282c33;strokeOpacity=100;fillOpacity=0;rounded=1;absoluteArcSize=1;arcSize=9;fillColor=#000000;strokeWidth=1.5;lucidId=Dm4.SMyEsqCw;" vertex="1" parent="1">
          <mxGeometry x="15" y="-990" width="120" height="60" as="geometry" />
        </mxCell>
        <mxCell id="k14v_txheM4Cf3BcGJJy-16" value="" style="html=1;jettySize=18;whiteSpace=wrap;fontSize=13;strokeColor=#3a414a;strokeOpacity=100;strokeWidth=0.8;rounded=1;arcSize=12;edgeStyle=orthogonalEdgeStyle;startArrow=none;endArrow=none;exitX=1.006;exitY=0.5;exitPerimeter=0;entryX=-0.006;entryY=0.5;entryPerimeter=0;lucidId=Om4.DYU~GO5D;" edge="1" parent="1" source="k14v_txheM4Cf3BcGJJy-8" target="k14v_txheM4Cf3BcGJJy-15">
          <mxGeometry width="100" height="100" relative="1" as="geometry">
            <Array as="points" />
          </mxGeometry>
        </mxCell>
        <mxCell id="k14v_txheM4Cf3BcGJJy-17" value="password" style="html=1;overflow=block;blockSpacing=1;whiteSpace=wrap;fontSize=16.7;spacing=3.8;strokeColor=#282c33;strokeOpacity=100;fillOpacity=0;rounded=1;absoluteArcSize=1;arcSize=9;fillColor=#000000;strokeWidth=1.5;lucidId=Vm4.rbRGy9mW;" vertex="1" parent="1">
          <mxGeometry x="-360" y="-1080" width="120" height="60" as="geometry" />
        </mxCell>
        <mxCell id="k14v_txheM4Cf3BcGJJy-18" value="" style="html=1;jettySize=18;whiteSpace=wrap;fontSize=13;strokeColor=#3a414a;strokeOpacity=100;strokeWidth=0.8;rounded=1;arcSize=12;edgeStyle=orthogonalEdgeStyle;startArrow=none;endArrow=none;exitX=0;exitY=0.5;exitPerimeter=0;entryX=0.5;entryY=1;entryPerimeter=0;lucidId=~m4.EF5y.aCc;" edge="1" parent="1" source="k14v_txheM4Cf3BcGJJy-8" target="k14v_txheM4Cf3BcGJJy-17">
          <mxGeometry width="100" height="100" relative="1" as="geometry">
            <Array as="points" />
          </mxGeometry>
        </mxCell>
        <mxCell id="k14v_txheM4Cf3BcGJJy-19" value="phone_number" style="html=1;overflow=block;blockSpacing=1;whiteSpace=wrap;fontSize=16.7;spacing=3.8;strokeColor=#282c33;strokeOpacity=100;fillOpacity=0;rounded=1;absoluteArcSize=1;arcSize=9;fillColor=#000000;strokeWidth=1.5;lucidId=kn4.R0cjuD.5;" vertex="1" parent="1">
          <mxGeometry x="30" y="-920" width="120" height="60" as="geometry" />
        </mxCell>
        <mxCell id="k14v_txheM4Cf3BcGJJy-20" value="" style="html=1;jettySize=18;whiteSpace=wrap;fontSize=13;strokeColor=#3a414a;strokeOpacity=100;strokeWidth=0.8;rounded=1;arcSize=12;edgeStyle=orthogonalEdgeStyle;startArrow=none;endArrow=none;exitX=1.006;exitY=0.5;exitPerimeter=0;entryX=-0.006;entryY=0.5;entryPerimeter=0;lucidId=tn4.gTeW8K1N;" edge="1" parent="1" source="k14v_txheM4Cf3BcGJJy-8" target="k14v_txheM4Cf3BcGJJy-19">
          <mxGeometry width="100" height="100" relative="1" as="geometry">
            <Array as="points" />
          </mxGeometry>
        </mxCell>
        <mxCell id="k14v_txheM4Cf3BcGJJy-21" value="Nutrition_Expert_ID" style="html=1;overflow=block;blockSpacing=1;whiteSpace=wrap;fontSize=16.7;spacing=3.8;strokeColor=#282c33;strokeOpacity=100;fillOpacity=0;rounded=1;absoluteArcSize=1;arcSize=9;fillColor=#000000;strokeWidth=1.5;lucidId=jo4.5yJuGAjk;" vertex="1" parent="1">
          <mxGeometry x="11" y="-790" width="158" height="60" as="geometry" />
        </mxCell>
        <mxCell id="k14v_txheM4Cf3BcGJJy-22" value="admin_id" style="html=1;overflow=block;blockSpacing=1;whiteSpace=wrap;fontSize=16.7;spacing=3.8;strokeColor=#282c33;strokeOpacity=100;fillOpacity=0;rounded=1;absoluteArcSize=1;arcSize=9;fillColor=#000000;strokeWidth=1.5;lucidId=5o4.SVC2BK7e;" vertex="1" parent="1">
          <mxGeometry x="30" y="-705" width="120" height="60" as="geometry" />
        </mxCell>
        <mxCell id="k14v_txheM4Cf3BcGJJy-23" value="name" style="html=1;overflow=block;blockSpacing=1;whiteSpace=wrap;fontSize=16.7;spacing=3.8;strokeColor=#282c33;strokeOpacity=100;fillOpacity=0;rounded=1;absoluteArcSize=1;arcSize=9;fillColor=#000000;strokeWidth=1.5;lucidId=bp4.pBYYGrTO;" vertex="1" parent="1">
          <mxGeometry x="-45" y="-860" width="120" height="60" as="geometry" />
        </mxCell>
        <mxCell id="k14v_txheM4Cf3BcGJJy-24" value="email" style="html=1;overflow=block;blockSpacing=1;whiteSpace=wrap;fontSize=16.7;spacing=3.8;strokeColor=#282c33;strokeOpacity=100;fillOpacity=0;rounded=1;absoluteArcSize=1;arcSize=9;fillColor=#000000;strokeWidth=1.5;lucidId=hp4.9bw_MthD;" vertex="1" parent="1">
          <mxGeometry x="-315" y="-840" width="120" height="60" as="geometry" />
        </mxCell>
        <mxCell id="k14v_txheM4Cf3BcGJJy-25" value="password" style="html=1;overflow=block;blockSpacing=1;whiteSpace=wrap;fontSize=16.7;spacing=3.8;strokeColor=#282c33;strokeOpacity=100;fillOpacity=0;rounded=1;absoluteArcSize=1;arcSize=9;fillColor=#000000;strokeWidth=1.5;lucidId=yp4.dL-oD~J-;" vertex="1" parent="1">
          <mxGeometry x="-180" y="-860" width="120" height="60" as="geometry" />
        </mxCell>
        <mxCell id="k14v_txheM4Cf3BcGJJy-26" value="phone_number" style="html=1;overflow=block;blockSpacing=1;whiteSpace=wrap;fontSize=16.7;spacing=3.8;strokeColor=#282c33;strokeOpacity=100;fillOpacity=0;rounded=1;absoluteArcSize=1;arcSize=9;fillColor=#000000;strokeWidth=1.5;lucidId=Hp4.tNCJLrxL;" vertex="1" parent="1">
          <mxGeometry x="-315" y="-765" width="120" height="60" as="geometry" />
        </mxCell>
        <mxCell id="k14v_txheM4Cf3BcGJJy-27" value="" style="html=1;jettySize=18;whiteSpace=wrap;fontSize=13;strokeColor=#3a414a;strokeOpacity=100;strokeWidth=0.8;rounded=1;arcSize=12;edgeStyle=orthogonalEdgeStyle;startArrow=none;endArrow=none;exitX=0;exitY=0.5;exitPerimeter=0;entryX=1;entryY=0.5;entryPerimeter=0;lucidId=.p4.c7B96Kth;" edge="1" parent="1" source="k14v_txheM4Cf3BcGJJy-9" target="k14v_txheM4Cf3BcGJJy-26">
          <mxGeometry width="100" height="100" relative="1" as="geometry">
            <Array as="points" />
          </mxGeometry>
        </mxCell>
        <mxCell id="k14v_txheM4Cf3BcGJJy-28" value="" style="html=1;jettySize=18;whiteSpace=wrap;fontSize=13;strokeColor=#3a414a;strokeOpacity=100;strokeWidth=0.8;rounded=1;arcSize=12;edgeStyle=orthogonalEdgeStyle;startArrow=none;endArrow=none;exitX=0;exitY=0.5;exitPerimeter=0;entryX=1;entryY=0.7;entryPerimeter=0;lucidId=hq4.8QhY85hR;" edge="1" parent="1" source="k14v_txheM4Cf3BcGJJy-9" target="k14v_txheM4Cf3BcGJJy-24">
          <mxGeometry width="100" height="100" relative="1" as="geometry">
            <Array as="points" />
          </mxGeometry>
        </mxCell>
        <mxCell id="k14v_txheM4Cf3BcGJJy-29" value="" style="html=1;jettySize=18;whiteSpace=wrap;fontSize=13;strokeColor=#3a414a;strokeOpacity=100;strokeWidth=0.8;rounded=1;arcSize=12;edgeStyle=orthogonalEdgeStyle;startArrow=none;endArrow=none;exitX=0.5;exitY=0;exitPerimeter=0;entryX=0.5;entryY=1;entryPerimeter=0;lucidId=mq4.BUg~tpfU;" edge="1" parent="1" source="k14v_txheM4Cf3BcGJJy-9" target="k14v_txheM4Cf3BcGJJy-25">
          <mxGeometry width="100" height="100" relative="1" as="geometry">
            <Array as="points" />
          </mxGeometry>
        </mxCell>
        <mxCell id="k14v_txheM4Cf3BcGJJy-30" value="" style="html=1;jettySize=18;whiteSpace=wrap;fontSize=13;strokeColor=#3a414a;strokeOpacity=100;strokeWidth=0.8;rounded=1;arcSize=12;edgeStyle=orthogonalEdgeStyle;startArrow=none;endArrow=none;exitX=0.5;exitY=0;exitPerimeter=0;entryX=0.25;entryY=1;lucidId=uq4.dJmSWm2z;entryDx=0;entryDy=0;" edge="1" parent="1" source="k14v_txheM4Cf3BcGJJy-9" target="k14v_txheM4Cf3BcGJJy-23">
          <mxGeometry width="100" height="100" relative="1" as="geometry">
            <Array as="points" />
          </mxGeometry>
        </mxCell>
        <mxCell id="k14v_txheM4Cf3BcGJJy-31" value="" style="html=1;jettySize=18;whiteSpace=wrap;fontSize=13;strokeColor=#3a414a;strokeOpacity=100;strokeWidth=0.8;rounded=1;arcSize=12;edgeStyle=orthogonalEdgeStyle;startArrow=none;endArrow=none;exitX=1;exitY=0.5;exitPerimeter=0;entryX=0;entryY=0.5;entryPerimeter=0;lucidId=Aq4.-assQVr6;" edge="1" parent="1" source="k14v_txheM4Cf3BcGJJy-9" target="k14v_txheM4Cf3BcGJJy-21">
          <mxGeometry width="100" height="100" relative="1" as="geometry">
            <Array as="points" />
          </mxGeometry>
        </mxCell>
        <mxCell id="k14v_txheM4Cf3BcGJJy-32" value="" style="html=1;jettySize=18;whiteSpace=wrap;fontSize=13;strokeColor=#3a414a;strokeOpacity=100;strokeWidth=0.8;rounded=1;arcSize=12;edgeStyle=orthogonalEdgeStyle;startArrow=none;endArrow=none;exitX=1;exitY=0.5;exitPerimeter=0;entryX=0;entryY=0.5;entryPerimeter=0;lucidId=Jq4.7JjkDNJj;" edge="1" parent="1" source="k14v_txheM4Cf3BcGJJy-9" target="k14v_txheM4Cf3BcGJJy-22">
          <mxGeometry width="100" height="100" relative="1" as="geometry">
            <Array as="points" />
          </mxGeometry>
        </mxCell>
        <mxCell id="k14v_txheM4Cf3BcGJJy-33" value="type_food" style="html=1;overflow=block;blockSpacing=1;whiteSpace=wrap;fontSize=16.7;spacing=3.8;strokeColor=#282c33;strokeOpacity=100;fillOpacity=0;rounded=1;absoluteArcSize=1;arcSize=9;fillColor=#000000;strokeWidth=1.5;lucidId=Vr4.kxyBdGOb;" vertex="1" parent="1">
          <mxGeometry x="210" y="-380" width="120" height="60" as="geometry" />
        </mxCell>
        <mxCell id="k14v_txheM4Cf3BcGJJy-34" value="calories" style="html=1;overflow=block;blockSpacing=1;whiteSpace=wrap;fontSize=16.7;spacing=3.8;strokeColor=#282c33;strokeOpacity=100;fillOpacity=0;rounded=1;absoluteArcSize=1;arcSize=9;fillColor=#000000;strokeWidth=1.5;lucidId=Wr4.r7PHUNw9;" vertex="1" parent="1">
          <mxGeometry x="210" y="-460" width="120" height="60" as="geometry" />
        </mxCell>
        <mxCell id="k14v_txheM4Cf3BcGJJy-35" value="description" style="html=1;overflow=block;blockSpacing=1;whiteSpace=wrap;fontSize=16.7;spacing=3.8;strokeColor=#282c33;strokeOpacity=100;fillOpacity=0;rounded=1;absoluteArcSize=1;arcSize=9;fillColor=#000000;strokeWidth=1.5;lucidId=Wr4.Wxobjl54;" vertex="1" parent="1">
          <mxGeometry x="210" y="-548" width="120" height="60" as="geometry" />
        </mxCell>
        <mxCell id="k14v_txheM4Cf3BcGJJy-36" value="title" style="html=1;overflow=block;blockSpacing=1;whiteSpace=wrap;fontSize=16.7;spacing=3.8;strokeColor=#282c33;strokeOpacity=100;fillOpacity=0;rounded=1;absoluteArcSize=1;arcSize=9;fillColor=#000000;strokeWidth=1.5;lucidId=Wr4.y0ivm8kx;" vertex="1" parent="1">
          <mxGeometry x="45" y="-548" width="120" height="60" as="geometry" />
        </mxCell>
        <mxCell id="k14v_txheM4Cf3BcGJJy-37" value="Nutiration_Expert_ID" style="html=1;overflow=block;blockSpacing=1;whiteSpace=wrap;fontSize=16.7;spacing=3.8;strokeColor=#282c33;strokeOpacity=100;fillOpacity=0;rounded=1;absoluteArcSize=1;arcSize=9;fillColor=#000000;strokeWidth=1.5;lucidId=Wr4.WvGKnIA~;" vertex="1" parent="1">
          <mxGeometry x="-138" y="-548" width="168" height="60" as="geometry" />
        </mxCell>
        <mxCell id="k14v_txheM4Cf3BcGJJy-38" value="Nutiration_Plan_ID" style="html=1;overflow=block;blockSpacing=1;whiteSpace=wrap;fontSize=16.7;spacing=3.8;strokeColor=#282c33;strokeOpacity=100;fillOpacity=0;rounded=1;absoluteArcSize=1;arcSize=9;fillColor=#000000;strokeWidth=1.5;lucidId=Xr4.vUyV~mmF;" vertex="1" parent="1">
          <mxGeometry x="-160" y="-465" width="147" height="60" as="geometry" />
        </mxCell>
        <mxCell id="k14v_txheM4Cf3BcGJJy-39" value="image" style="html=1;overflow=block;blockSpacing=1;whiteSpace=wrap;fontSize=16.7;spacing=3.8;strokeColor=#282c33;strokeOpacity=100;fillOpacity=0;rounded=1;absoluteArcSize=1;arcSize=9;fillColor=#000000;strokeWidth=1.5;lucidId=.t4.TPmFnzz3;" vertex="1" parent="1">
          <mxGeometry x="75" y="-345" width="120" height="60" as="geometry" />
        </mxCell>
        <mxCell id="k14v_txheM4Cf3BcGJJy-40" value="foods" style="html=1;overflow=block;blockSpacing=1;whiteSpace=wrap;fontSize=16.7;spacing=3.8;strokeColor=#282c33;strokeOpacity=100;fillOpacity=0;rounded=1;absoluteArcSize=1;arcSize=9;fillColor=#000000;strokeWidth=1.5;lucidId=ku4.mM~drQsk;" vertex="1" parent="1">
          <mxGeometry x="-75" y="-345" width="120" height="60" as="geometry" />
        </mxCell>
        <mxCell id="k14v_txheM4Cf3BcGJJy-41" value="" style="html=1;jettySize=18;whiteSpace=wrap;fontSize=13;strokeColor=#3a414a;strokeOpacity=100;strokeWidth=0.8;rounded=1;arcSize=12;edgeStyle=orthogonalEdgeStyle;startArrow=none;endArrow=none;exitX=0.5;exitY=0;exitPerimeter=0;entryX=0.85;entryY=1;entryPerimeter=0;lucidId=-u4.BW7Z5I2.;" edge="1" parent="1" source="k14v_txheM4Cf3BcGJJy-10" target="k14v_txheM4Cf3BcGJJy-37">
          <mxGeometry width="100" height="100" relative="1" as="geometry">
            <Array as="points" />
          </mxGeometry>
        </mxCell>
        <mxCell id="k14v_txheM4Cf3BcGJJy-42" value="" style="html=1;jettySize=18;whiteSpace=wrap;fontSize=13;strokeColor=#3a414a;strokeOpacity=100;strokeWidth=0.8;rounded=1;arcSize=12;edgeStyle=orthogonalEdgeStyle;startArrow=none;endArrow=none;exitX=0;exitY=0.5;exitPerimeter=0;entryX=1;entryY=0.5;lucidId=ov4.1g-JN4fb;entryDx=0;entryDy=0;" edge="1" parent="1" source="k14v_txheM4Cf3BcGJJy-10" target="k14v_txheM4Cf3BcGJJy-38">
          <mxGeometry width="100" height="100" relative="1" as="geometry">
            <Array as="points" />
          </mxGeometry>
        </mxCell>
        <mxCell id="k14v_txheM4Cf3BcGJJy-47" style="edgeStyle=orthogonalEdgeStyle;rounded=0;orthogonalLoop=1;jettySize=auto;html=1;entryX=0.45;entryY=-0.011;entryDx=0;entryDy=0;entryPerimeter=0;endArrow=none;startFill=0;" edge="1" parent="1" source="k14v_txheM4Cf3BcGJJy-10" target="k14v_txheM4Cf3BcGJJy-39">
          <mxGeometry relative="1" as="geometry" />
        </mxCell>
        <mxCell id="k14v_txheM4Cf3BcGJJy-49" value="chat" style="html=1;overflow=block;blockSpacing=1;whiteSpace=wrap;fontSize=16.7;spacing=3.8;strokeColor=#282c33;strokeOpacity=100;fillOpacity=0;rounded=1;absoluteArcSize=1;arcSize=9;fillColor=#000000;strokeWidth=1.5;lucidId=Aa4.6Gmrf4B5;" vertex="1" parent="1">
          <mxGeometry x="-1035" y="-1110" width="120" height="60" as="geometry" />
        </mxCell>
        <mxCell id="k14v_txheM4Cf3BcGJJy-55" value="" style="html=1;jettySize=18;whiteSpace=wrap;fontSize=13;strokeColor=#3a414a;strokeOpacity=100;strokeWidth=0.8;rounded=1;arcSize=12;edgeStyle=orthogonalEdgeStyle;startArrow=none;endArrow=none;exitX=0;exitY=0.5;exitPerimeter=0;entryX=1;entryY=0.5;entryPerimeter=0;lucidId=7h4..savkBz.;entryDx=0;entryDy=0;" edge="1" parent="1" source="k14v_txheM4Cf3BcGJJy-49" target="k14v_txheM4Cf3BcGJJy-75">
          <mxGeometry width="100" height="100" relative="1" as="geometry">
            <Array as="points" />
            <mxPoint x="-1090" y="-1080" as="targetPoint" />
          </mxGeometry>
        </mxCell>
        <mxCell id="k14v_txheM4Cf3BcGJJy-56" value="" style="html=1;jettySize=18;whiteSpace=wrap;fontSize=13;strokeColor=#3a414a;strokeOpacity=100;strokeWidth=0.8;rounded=1;arcSize=12;edgeStyle=orthogonalEdgeStyle;startArrow=none;endArrow=none;exitX=0.5;exitY=0;exitPerimeter=0;entryX=0.5;entryY=1;entryPerimeter=0;lucidId=gi4.UuPNpwAK;entryDx=0;entryDy=0;" edge="1" parent="1" source="k14v_txheM4Cf3BcGJJy-49" target="k14v_txheM4Cf3BcGJJy-76">
          <mxGeometry width="100" height="100" relative="1" as="geometry">
            <Array as="points" />
            <mxPoint x="-1080" y="-1140" as="targetPoint" />
          </mxGeometry>
        </mxCell>
        <mxCell id="k14v_txheM4Cf3BcGJJy-57" value="" style="html=1;jettySize=18;whiteSpace=wrap;fontSize=13;strokeColor=#3a414a;strokeOpacity=100;strokeWidth=0.8;rounded=1;arcSize=12;edgeStyle=orthogonalEdgeStyle;startArrow=none;endArrow=none;exitX=0.5;exitY=0;exitPerimeter=0;entryX=0.5;entryY=1;entryPerimeter=0;lucidId=wi4.hVW3zap1;entryDx=0;entryDy=0;" edge="1" parent="1" source="k14v_txheM4Cf3BcGJJy-49" target="k14v_txheM4Cf3BcGJJy-77">
          <mxGeometry width="100" height="100" relative="1" as="geometry">
            <Array as="points" />
            <mxPoint x="-930" y="-1140" as="targetPoint" />
          </mxGeometry>
        </mxCell>
        <mxCell id="k14v_txheM4Cf3BcGJJy-58" value="" style="html=1;jettySize=18;whiteSpace=wrap;fontSize=13;strokeColor=#3a414a;strokeOpacity=100;strokeWidth=0.8;rounded=1;arcSize=12;edgeStyle=orthogonalEdgeStyle;startArrow=none;endArrow=none;exitX=1;exitY=0.5;exitPerimeter=0;entryX=0.5;entryY=1;entryPerimeter=0;lucidId=Ii4._DBY6bai;entryDx=0;entryDy=0;" edge="1" parent="1" source="k14v_txheM4Cf3BcGJJy-49" target="k14v_txheM4Cf3BcGJJy-78">
          <mxGeometry width="100" height="100" relative="1" as="geometry">
            <Array as="points" />
            <mxPoint x="-780" y="-1140" as="targetPoint" />
          </mxGeometry>
        </mxCell>
        <mxCell id="k14v_txheM4Cf3BcGJJy-59" value="" style="html=1;jettySize=18;whiteSpace=wrap;fontSize=13;strokeColor=#3a414a;strokeOpacity=100;strokeWidth=0.8;rounded=1;arcSize=12;edgeStyle=orthogonalEdgeStyle;startArrow=none;endArrow=none;exitX=1;exitY=0.5;exitPerimeter=0;lucidId=6i4.wJq~u8gJ;entryX=0.5;entryY=0;entryDx=0;entryDy=0;entryPerimeter=0;" edge="1" parent="1" source="k14v_txheM4Cf3BcGJJy-49" target="k14v_txheM4Cf3BcGJJy-79">
          <mxGeometry width="100" height="100" relative="1" as="geometry">
            <Array as="points" />
            <mxPoint x="-825" y="-1040" as="targetPoint" />
          </mxGeometry>
        </mxCell>
        <mxCell id="k14v_txheM4Cf3BcGJJy-60" value="Fitness&#xa;Trainer" style="html=1;overflow=block;blockSpacing=1;whiteSpace=wrap;fontSize=16.7;spacing=3.8;strokeColor=#282c33;strokeOpacity=100;fillOpacity=0;rounded=1;absoluteArcSize=1;arcSize=9;fillColor=#000000;strokeWidth=1.5;lucidId=3d4.SDTrAAYC;" vertex="1" parent="1">
          <mxGeometry x="-540" y="285" width="120" height="60" as="geometry" />
        </mxCell>
        <mxCell id="k14v_txheM4Cf3BcGJJy-61" value="Fitness_Trainer_id" style="html=1;overflow=block;blockSpacing=1;whiteSpace=wrap;fontSize=16.7;spacing=3.8;strokeColor=#282c33;strokeOpacity=100;fillOpacity=0;rounded=1;absoluteArcSize=1;arcSize=9;fillColor=#000000;strokeWidth=1.5;lucidId=Zo5.alorDhba;" vertex="1" parent="1">
          <mxGeometry x="-345" y="225" width="165" height="60" as="geometry" />
        </mxCell>
        <mxCell id="k14v_txheM4Cf3BcGJJy-62" value="admin_id" style="html=1;overflow=block;blockSpacing=1;whiteSpace=wrap;fontSize=16.7;spacing=3.8;strokeColor=#282c33;strokeOpacity=100;fillOpacity=0;rounded=1;absoluteArcSize=1;arcSize=9;fillColor=#000000;strokeWidth=1.5;lucidId=8q5.570Jm0Rs;" vertex="1" parent="1">
          <mxGeometry x="-345" y="300" width="135" height="60" as="geometry" />
        </mxCell>
        <mxCell id="k14v_txheM4Cf3BcGJJy-63" value="name" style="html=1;overflow=block;blockSpacing=1;whiteSpace=wrap;fontSize=16.7;spacing=3.8;strokeColor=#282c33;strokeOpacity=100;fillOpacity=0;rounded=1;absoluteArcSize=1;arcSize=9;fillColor=#000000;strokeWidth=1.5;lucidId=kr5.kRt~M~ig;" vertex="1" parent="1">
          <mxGeometry x="-345" y="390" width="120" height="60" as="geometry" />
        </mxCell>
        <mxCell id="k14v_txheM4Cf3BcGJJy-64" value="email" style="html=1;overflow=block;blockSpacing=1;whiteSpace=wrap;fontSize=16.7;spacing=3.8;strokeColor=#282c33;strokeOpacity=100;fillOpacity=0;rounded=1;absoluteArcSize=1;arcSize=9;fillColor=#000000;strokeWidth=1.5;lucidId=Or5.ckbSnUcz;" vertex="1" parent="1">
          <mxGeometry x="-337" y="480" width="120" height="60" as="geometry" />
        </mxCell>
        <mxCell id="k14v_txheM4Cf3BcGJJy-65" value="password" style="html=1;overflow=block;blockSpacing=1;whiteSpace=wrap;fontSize=16.7;spacing=3.8;strokeColor=#282c33;strokeOpacity=100;fillOpacity=0;rounded=1;absoluteArcSize=1;arcSize=9;fillColor=#000000;strokeWidth=1.5;lucidId=Yr5.apCRp1Im;" vertex="1" parent="1">
          <mxGeometry x="-465" y="150" width="120" height="60" as="geometry" />
        </mxCell>
        <mxCell id="k14v_txheM4Cf3BcGJJy-66" value="phone_number" style="html=1;overflow=block;blockSpacing=1;whiteSpace=wrap;fontSize=16.7;spacing=3.8;strokeColor=#282c33;strokeOpacity=100;fillOpacity=0;rounded=1;absoluteArcSize=1;arcSize=9;fillColor=#000000;strokeWidth=1.5;lucidId=9r5.1L1osy26;" vertex="1" parent="1">
          <mxGeometry x="-560" y="520" width="120" height="60" as="geometry" />
        </mxCell>
        <mxCell id="k14v_txheM4Cf3BcGJJy-67" value="" style="html=1;jettySize=18;whiteSpace=wrap;fontSize=13;strokeColor=#3a414a;strokeOpacity=100;strokeWidth=0.8;rounded=1;arcSize=12;edgeStyle=orthogonalEdgeStyle;startArrow=none;endArrow=none;exitX=0.5;exitY=0;exitPerimeter=0;entryX=0.5;entryY=1;entryPerimeter=0;lucidId=us5.Jt5k790B;" edge="1" parent="1" source="k14v_txheM4Cf3BcGJJy-60" target="k14v_txheM4Cf3BcGJJy-65">
          <mxGeometry width="100" height="100" relative="1" as="geometry">
            <Array as="points" />
          </mxGeometry>
        </mxCell>
        <mxCell id="k14v_txheM4Cf3BcGJJy-68" value="" style="html=1;jettySize=18;whiteSpace=wrap;fontSize=13;strokeColor=#3a414a;strokeOpacity=100;strokeWidth=0.8;rounded=1;arcSize=12;edgeStyle=orthogonalEdgeStyle;startArrow=none;endArrow=none;exitX=1;exitY=0.5;exitPerimeter=0;entryX=0;entryY=0.5;entryPerimeter=0;lucidId=Bs5.VEPdkZv1;" edge="1" parent="1" source="k14v_txheM4Cf3BcGJJy-60" target="k14v_txheM4Cf3BcGJJy-61">
          <mxGeometry width="100" height="100" relative="1" as="geometry">
            <Array as="points" />
          </mxGeometry>
        </mxCell>
        <mxCell id="k14v_txheM4Cf3BcGJJy-69" value="" style="html=1;jettySize=18;whiteSpace=wrap;fontSize=13;strokeColor=#3a414a;strokeOpacity=100;strokeWidth=0.8;rounded=1;arcSize=12;edgeStyle=orthogonalEdgeStyle;startArrow=none;endArrow=none;exitX=1;exitY=0.5;exitPerimeter=0;entryX=0;entryY=0.5;entryPerimeter=0;lucidId=Is5.1R-aW-am;" edge="1" parent="1" source="k14v_txheM4Cf3BcGJJy-60" target="k14v_txheM4Cf3BcGJJy-62">
          <mxGeometry width="100" height="100" relative="1" as="geometry">
            <Array as="points" />
          </mxGeometry>
        </mxCell>
        <mxCell id="k14v_txheM4Cf3BcGJJy-70" value="" style="html=1;jettySize=18;whiteSpace=wrap;fontSize=13;strokeColor=#3a414a;strokeOpacity=100;strokeWidth=0.8;rounded=1;arcSize=12;edgeStyle=orthogonalEdgeStyle;startArrow=none;endArrow=none;exitX=1;exitY=0.5;exitPerimeter=0;entryX=0;entryY=0.5;entryPerimeter=0;lucidId=Os5.J5uZ53gJ;" edge="1" parent="1" source="k14v_txheM4Cf3BcGJJy-60" target="k14v_txheM4Cf3BcGJJy-63">
          <mxGeometry width="100" height="100" relative="1" as="geometry">
            <Array as="points" />
          </mxGeometry>
        </mxCell>
        <mxCell id="k14v_txheM4Cf3BcGJJy-71" value="" style="html=1;jettySize=18;whiteSpace=wrap;fontSize=13;strokeColor=#3a414a;strokeOpacity=100;strokeWidth=0.8;rounded=1;arcSize=12;edgeStyle=orthogonalEdgeStyle;startArrow=none;endArrow=none;exitX=0.5;exitY=1;exitPerimeter=0;entryX=0;entryY=0.5;entryPerimeter=0;lucidId=Us5.HyCibfQd;" edge="1" parent="1" source="k14v_txheM4Cf3BcGJJy-60" target="k14v_txheM4Cf3BcGJJy-64">
          <mxGeometry width="100" height="100" relative="1" as="geometry">
            <Array as="points" />
          </mxGeometry>
        </mxCell>
        <mxCell id="k14v_txheM4Cf3BcGJJy-72" value="" style="html=1;jettySize=18;whiteSpace=wrap;fontSize=13;strokeColor=#3a414a;strokeOpacity=100;strokeWidth=0.8;rounded=1;arcSize=12;edgeStyle=orthogonalEdgeStyle;startArrow=none;endArrow=none;exitX=0.5;exitY=1;exitPerimeter=0;entryX=0.5;entryY=0;entryPerimeter=0;lucidId=~s5.UFB_6NgP;" edge="1" parent="1" source="k14v_txheM4Cf3BcGJJy-60" target="k14v_txheM4Cf3BcGJJy-66">
          <mxGeometry width="100" height="100" relative="1" as="geometry">
            <Array as="points" />
          </mxGeometry>
        </mxCell>
        <mxCell id="k14v_txheM4Cf3BcGJJy-75" value="&lt;span style=&quot;font-size: 17px;&quot;&gt;Time&lt;/span&gt;" style="strokeWidth=2;html=1;shape=mxgraph.flowchart.terminator;whiteSpace=wrap;" vertex="1" parent="1">
          <mxGeometry x="-1210" y="-1110" width="100" height="60" as="geometry" />
        </mxCell>
        <mxCell id="k14v_txheM4Cf3BcGJJy-76" value="&lt;span style=&quot;font-size: 17px;&quot;&gt;chat_ID&lt;/span&gt;" style="strokeWidth=2;html=1;shape=mxgraph.flowchart.terminator;whiteSpace=wrap;" vertex="1" parent="1">
          <mxGeometry x="-1120" y="-1230" width="100" height="60" as="geometry" />
        </mxCell>
        <mxCell id="k14v_txheM4Cf3BcGJJy-77" value="&lt;span style=&quot;font-size: 17px;&quot;&gt;sender_ID&lt;/span&gt;" style="strokeWidth=2;html=1;shape=mxgraph.flowchart.terminator;whiteSpace=wrap;" vertex="1" parent="1">
          <mxGeometry x="-974.5" y="-1215" width="100" height="60" as="geometry" />
        </mxCell>
        <mxCell id="k14v_txheM4Cf3BcGJJy-78" value="&lt;span style=&quot;font-size: 17px;&quot;&gt;receiver_ID&lt;/span&gt;" style="strokeWidth=2;html=1;shape=mxgraph.flowchart.terminator;whiteSpace=wrap;" vertex="1" parent="1">
          <mxGeometry x="-825" y="-1220" width="100" height="60" as="geometry" />
        </mxCell>
        <mxCell id="k14v_txheM4Cf3BcGJJy-79" value="&lt;span style=&quot;font-size: 17px;&quot;&gt;Message&lt;/span&gt;" style="strokeWidth=2;html=1;shape=mxgraph.flowchart.terminator;whiteSpace=wrap;" vertex="1" parent="1">
          <mxGeometry x="-875" y="-1035" width="100" height="60" as="geometry" />
        </mxCell>
      </root>
    </mxGraphModel>
  </diagram>
</mxfile>
